<mxfile host="Electron" modified="2023-10-25T01:01:12.320Z" agent="Mozilla/5.0 (Windows NT 10.0; Win64; x64) AppleWebKit/537.36 (KHTML, like Gecko) draw.io/21.2.8 Chrome/112.0.5615.165 Electron/24.2.0 Safari/537.36" etag="wQOEjmzR_RawHnxXUc5g" version="21.2.8" type="device">
  <diagram id="C5RBs43oDa-KdzZeNtuy" name="Page-1">
    <mxGraphModel dx="1062" dy="873" grid="1" gridSize="10" guides="1" tooltips="1" connect="1" arrows="1" fold="1" page="1" pageScale="1" pageWidth="827" pageHeight="1169" math="0" shadow="0">
      <root>
        <mxCell id="WIyWlLk6GJQsqaUBKTNV-0" />
        <mxCell id="WIyWlLk6GJQsqaUBKTNV-1" parent="WIyWlLk6GJQsqaUBKTNV-0" />
        <mxCell id="RX2QMKv87wwmbG2hRjAb-2" value="기능별 분류(문제를 잘게 쪼개고 세분화한다)&lt;br&gt;@@@@@@&lt;br&gt;이 프로그램에는 어떤 기능들이 필요한가" style="rounded=1;whiteSpace=wrap;html=1;" parent="WIyWlLk6GJQsqaUBKTNV-1" vertex="1">
          <mxGeometry x="272.5" y="170" width="277.5" height="70" as="geometry" />
        </mxCell>
        <mxCell id="RX2QMKv87wwmbG2hRjAb-1" value="프로그램 개발 순서" style="rounded=1;whiteSpace=wrap;html=1;" parent="WIyWlLk6GJQsqaUBKTNV-1" vertex="1">
          <mxGeometry x="310.5" y="20" width="120" height="30" as="geometry" />
        </mxCell>
        <mxCell id="RX2QMKv87wwmbG2hRjAb-5" style="edgeStyle=orthogonalEdgeStyle;rounded=0;orthogonalLoop=1;jettySize=auto;html=1;exitX=0.5;exitY=1;exitDx=0;exitDy=0;entryX=0.5;entryY=0;entryDx=0;entryDy=0;" parent="WIyWlLk6GJQsqaUBKTNV-1" source="RX2QMKv87wwmbG2hRjAb-2" target="RX2QMKv87wwmbG2hRjAb-3" edge="1">
          <mxGeometry relative="1" as="geometry" />
        </mxCell>
        <mxCell id="z50qVwQU5YurgJMq-t4P-3" style="edgeStyle=orthogonalEdgeStyle;rounded=0;orthogonalLoop=1;jettySize=auto;html=1;exitX=0.5;exitY=1;exitDx=0;exitDy=0;" parent="WIyWlLk6GJQsqaUBKTNV-1" source="RX2QMKv87wwmbG2hRjAb-3" target="z50qVwQU5YurgJMq-t4P-1" edge="1">
          <mxGeometry relative="1" as="geometry" />
        </mxCell>
        <mxCell id="RX2QMKv87wwmbG2hRjAb-3" value="이 기능엔 구체적으로 어떤 엑션이 필요한가?" style="rounded=1;whiteSpace=wrap;html=1;" parent="WIyWlLk6GJQsqaUBKTNV-1" vertex="1">
          <mxGeometry x="260" y="280" width="251" height="40" as="geometry" />
        </mxCell>
        <mxCell id="RX2QMKv87wwmbG2hRjAb-23" value="&lt;h1 style=&quot;font-size: 15px;&quot;&gt;&lt;br&gt;&lt;/h1&gt;&lt;div&gt;&lt;br&gt;&lt;/div&gt;&lt;div&gt;프로그램은 여러개의 기능을 갖고&lt;/div&gt;&lt;div&gt;&lt;br&gt;&lt;/div&gt;&lt;div&gt;기능은 여러개의 액션, 상태를 갖는다.&lt;/div&gt;" style="text;html=1;strokeColor=none;fillColor=none;spacing=5;spacingTop=-20;whiteSpace=wrap;overflow=hidden;rounded=0;" parent="WIyWlLk6GJQsqaUBKTNV-1" vertex="1">
          <mxGeometry x="20" y="90" width="190" height="120" as="geometry" />
        </mxCell>
        <mxCell id="z50qVwQU5YurgJMq-t4P-2" style="edgeStyle=orthogonalEdgeStyle;rounded=0;orthogonalLoop=1;jettySize=auto;html=1;exitX=0.5;exitY=1;exitDx=0;exitDy=0;" parent="WIyWlLk6GJQsqaUBKTNV-1" source="z50qVwQU5YurgJMq-t4P-0" target="RX2QMKv87wwmbG2hRjAb-2" edge="1">
          <mxGeometry relative="1" as="geometry" />
        </mxCell>
        <mxCell id="z50qVwQU5YurgJMq-t4P-0" value="어떤 문제를 해결하고자 하는가?&lt;br&gt;어떤 프로그램을 만들 것인가?" style="rounded=1;whiteSpace=wrap;html=1;" parent="WIyWlLk6GJQsqaUBKTNV-1" vertex="1">
          <mxGeometry x="287.5" y="70" width="196" height="70" as="geometry" />
        </mxCell>
        <mxCell id="z50qVwQU5YurgJMq-t4P-1" value="이 액션엔 어떤 조건들이 있는가?" style="rounded=1;whiteSpace=wrap;html=1;" parent="WIyWlLk6GJQsqaUBKTNV-1" vertex="1">
          <mxGeometry x="260" y="370" width="251" height="40" as="geometry" />
        </mxCell>
        <mxCell id="NWhrZuVlRmnTCL2lv8xB-0" value="세분화 후 하나씩 구현후 각 모듈마다 테스트과정을 거쳐야 한다.&lt;br&gt;그렇지 않고 한번에 모두 만들고 한번에 테스트를 하는것은 일을 세번, 네번 하게 된다.&lt;br&gt;&lt;br&gt;주의할 점은 세분화 했을 때 부터 설계에 논리적 오류가 없어야 한다.&lt;br&gt;&lt;br&gt;세분화 후 동사 하나당 함수 하나씩 할당" style="rounded=1;whiteSpace=wrap;html=1;" parent="WIyWlLk6GJQsqaUBKTNV-1" vertex="1">
          <mxGeometry x="590" y="110" width="520" height="240" as="geometry" />
        </mxCell>
        <mxCell id="EfQraL_fNm_MlQabk7uy-0" value="작업중 자리에일어나 Break를할 때는 항상 지금 내가 뭘 하고 있고, 다음엔 뭘 해야하는지 알고 일어나야한다.&lt;br&gt;그것은 다시 컴퓨터 앞에 앉았을 때 빠르게 작업을 시작할 수 있게 해 준다." style="rounded=1;whiteSpace=wrap;html=1;" parent="WIyWlLk6GJQsqaUBKTNV-1" vertex="1">
          <mxGeometry x="650" y="400" width="510" height="160" as="geometry" />
        </mxCell>
        <mxCell id="tbXyfV2bwIxNZGLL_LqQ-0" value="코드나&amp;nbsp;&lt;br&gt;구조가 이해할 수 없는 것은 과정 하나하나의 증명을 보지 않았기 때문" style="rounded=1;whiteSpace=wrap;html=1;" vertex="1" parent="WIyWlLk6GJQsqaUBKTNV-1">
          <mxGeometry x="650" y="620" width="280" height="140" as="geometry" />
        </mxCell>
      </root>
    </mxGraphModel>
  </diagram>
</mxfile>
